<?xml version="1.0" encoding="UTF-8"?>
<svg xmlns="http://www.w3.org/2000/svg" version="1.1" width="100" height="100" viewBox="0 0 100 100"><rect x="0" y="0" width="100" height="100" fill="#ffffff"/><g transform="scale(3.03)"><g transform="translate(0,0)"><path fill-rule="evenodd" d="M8 0L8 1L10 1L10 0ZM15 0L15 1L14 1L14 2L11 2L11 4L10 4L10 3L9 3L9 2L8 2L8 5L9 5L9 6L8 6L8 7L9 7L9 8L8 8L8 9L7 9L7 8L6 8L6 9L5 9L5 10L4 10L4 8L0 8L0 10L1 10L1 9L3 9L3 12L1 12L1 13L0 13L0 18L2 18L2 19L3 19L3 17L4 17L4 18L6 18L6 19L4 19L4 20L1 20L1 21L0 21L0 22L1 22L1 21L3 21L3 23L1 23L1 24L0 24L0 25L1 25L1 24L2 24L2 25L4 25L4 21L7 21L7 22L6 22L6 23L7 23L7 24L5 24L5 25L8 25L8 26L9 26L9 29L8 29L8 33L10 33L10 31L11 31L11 32L12 32L12 31L11 31L11 30L10 30L10 29L11 29L11 28L12 28L12 29L13 29L13 28L12 28L12 26L13 26L13 27L14 27L14 30L13 30L13 33L15 33L15 32L16 32L16 28L17 28L17 27L18 27L18 29L17 29L17 33L19 33L19 32L20 32L20 31L18 31L18 29L19 29L19 30L22 30L22 32L23 32L23 33L24 33L24 32L26 32L26 33L27 33L27 32L28 32L28 33L29 33L29 32L28 32L28 31L27 31L27 30L26 30L26 31L25 31L25 29L31 29L31 25L30 25L30 26L29 26L29 24L30 24L30 21L31 21L31 24L32 24L32 25L33 25L33 24L32 24L32 23L33 23L33 21L31 21L31 20L30 20L30 21L29 21L29 24L28 24L28 23L27 23L27 21L25 21L25 22L24 22L24 21L23 21L23 22L21 22L21 23L20 23L20 24L19 24L19 25L20 25L20 24L21 24L21 25L22 25L22 26L23 26L23 28L22 28L22 27L21 27L21 26L18 26L18 24L17 24L17 25L16 25L16 24L14 24L14 26L13 26L13 24L12 24L12 25L11 25L11 26L10 26L10 25L9 25L9 24L11 24L11 23L14 23L14 22L15 22L15 21L17 21L17 22L16 22L16 23L17 23L17 22L18 22L18 23L19 23L19 22L20 22L20 21L21 21L21 19L22 19L22 20L23 20L23 19L22 19L22 18L25 18L25 17L26 17L26 18L27 18L27 19L28 19L28 20L29 20L29 19L30 19L30 18L31 18L31 19L32 19L32 20L33 20L33 19L32 19L32 18L33 18L33 16L31 16L31 14L32 14L32 13L30 13L30 14L29 14L29 15L28 15L28 13L29 13L29 11L31 11L31 12L32 12L32 11L33 11L33 8L32 8L32 9L31 9L31 8L28 8L28 9L31 9L31 10L27 10L27 9L26 9L26 8L25 8L25 3L24 3L24 4L23 4L23 2L25 2L25 1L23 1L23 0L21 0L21 1L20 1L20 0L19 0L19 1L20 1L20 2L18 2L18 3L17 3L17 5L16 5L16 7L15 7L15 5L14 5L14 4L13 4L13 5L12 5L12 3L16 3L16 1L17 1L17 0ZM22 1L22 2L20 2L20 3L19 3L19 4L20 4L20 3L22 3L22 2L23 2L23 1ZM21 4L21 5L23 5L23 7L24 7L24 5L23 5L23 4ZM10 5L10 6L9 6L9 7L10 7L10 8L9 8L9 9L8 9L8 11L4 11L4 12L5 12L5 13L2 13L2 14L1 14L1 17L2 17L2 16L4 16L4 15L5 15L5 16L7 16L7 17L6 17L6 18L8 18L8 21L9 21L9 20L10 20L10 21L11 21L11 22L12 22L12 21L11 21L11 20L12 20L12 19L9 19L9 18L8 18L8 17L9 17L9 16L10 16L10 18L12 18L12 17L14 17L14 18L13 18L13 20L14 20L14 21L15 21L15 17L16 17L16 19L18 19L18 18L19 18L19 19L21 19L21 18L22 18L22 16L24 16L24 17L25 17L25 15L26 15L26 14L27 14L27 13L28 13L28 11L26 11L26 12L25 12L25 13L23 13L23 11L20 11L20 10L25 10L25 8L24 8L24 9L23 9L23 8L22 8L22 6L21 6L21 9L20 9L20 10L19 10L19 8L20 8L20 6L19 6L19 5L17 5L17 7L18 7L18 9L17 9L17 10L16 10L16 8L15 8L15 9L13 9L13 7L14 7L14 5L13 5L13 7L12 7L12 5ZM10 6L10 7L11 7L11 8L12 8L12 7L11 7L11 6ZM18 6L18 7L19 7L19 6ZM6 9L6 10L7 10L7 9ZM9 9L9 10L10 10L10 9ZM14 10L14 11L11 11L11 13L10 13L10 12L9 12L9 11L8 11L8 12L9 12L9 13L8 13L8 14L6 14L6 13L7 13L7 12L6 12L6 13L5 13L5 14L6 14L6 15L8 15L8 14L9 14L9 15L10 15L10 16L11 16L11 17L12 17L12 16L14 16L14 15L15 15L15 16L16 16L16 17L17 17L17 18L18 18L18 17L19 17L19 16L16 16L16 15L17 15L17 13L19 13L19 14L18 14L18 15L20 15L20 14L21 14L21 12L20 12L20 13L19 13L19 10L18 10L18 12L17 12L17 13L16 13L16 12L15 12L15 10ZM31 10L31 11L32 11L32 10ZM12 12L12 14L10 14L10 15L11 15L11 16L12 16L12 14L13 14L13 15L14 15L14 14L15 14L15 15L16 15L16 14L15 14L15 12ZM13 13L13 14L14 14L14 13ZM2 14L2 15L4 15L4 14ZM22 14L22 15L21 15L21 16L22 16L22 15L23 15L23 14ZM24 14L24 15L25 15L25 14ZM27 15L27 17L28 17L28 15ZM29 15L29 16L30 16L30 15ZM31 17L31 18L32 18L32 17ZM28 18L28 19L29 19L29 18ZM6 19L6 20L7 20L7 19ZM24 19L24 20L26 20L26 19ZM8 22L8 24L9 24L9 22ZM21 23L21 24L22 24L22 23ZM23 23L23 25L24 25L24 24L25 24L25 23ZM26 23L26 24L27 24L27 23ZM25 25L25 28L28 28L28 25ZM14 26L14 27L17 27L17 26ZM26 26L26 27L27 27L27 26ZM10 27L10 28L11 28L11 27ZM19 27L19 28L21 28L21 29L22 29L22 28L21 28L21 27ZM32 27L32 28L33 28L33 27ZM23 29L23 32L24 32L24 29ZM32 29L32 30L33 30L33 29ZM29 30L29 31L30 31L30 30ZM26 31L26 32L27 32L27 31ZM32 31L32 32L33 32L33 31ZM30 32L30 33L31 33L31 32ZM0 0L0 7L7 7L7 0ZM1 1L1 6L6 6L6 1ZM2 2L2 5L5 5L5 2ZM26 0L26 7L33 7L33 0ZM27 1L27 6L32 6L32 1ZM28 2L28 5L31 5L31 2ZM0 26L0 33L7 33L7 26ZM1 27L1 32L6 32L6 27ZM2 28L2 31L5 31L5 28Z" fill="#000000"/></g></g></svg>
